Coordinates
version=1
nRows=13
nColumns=38
inDegrees=no

Units are S.I. units (second, meters, Newtons, ...)
If the header above contains a line with 'inDegrees', this indicates whether rotational values are in degrees (yes) or radians (no).

endheader
time	pelvis_tilt	pelvis_list	pelvis_rotation	pelvis_tx	pelvis_ty	pelvis_tz	hip_flexion_r	hip_adduction_r	hip_rotation_r	knee_angle_r	ankle_angle_r	subtalar_angle_r	mtp_angle_r	hip_flexion_l	hip_adduction_l	hip_rotation_l	knee_angle_l	ankle_angle_l	subtalar_angle_l	mtp_angle_l	lumbar_extension	lumbar_bending	lumbar_rotation	arm_flex_r	arm_add_r	arm_rot_r	elbow_flex_r	pro_sup_r	wrist_flex_r	wrist_dev_r	arm_flex_l	arm_add_l	arm_rot_l	elbow_flex_l	pro_sup_l	wrist_flex_l	wrist_dev_l
1.93	-0.0771931	1.53461	-1.3057	0.990094	-0.417626	0.90384	0.403132	-0.0760854	-0.323148	0.324669	0.0204955	0	0	-0.311726	-0.0916944	-0.194112	0.439221	0.295642	0	0	-0.164066	0.0403478	-0.31237	-0.23415	-0.213142	0.145592	0.787724	0.511581	0	0	-0.0233441	-0.351776	0.0799393	0.692795	1.38397	0	0
1.94	-0.272542	1.53568	-1.10834	0.98898	-0.43123	0.90458	0.406157	-0.0713237	-0.324478	0.355091	0.0235945	0	0	-0.286019	-0.111911	-0.195404	0.50283	0.26525	0	0	-0.158327	0.0486259	-0.312735	-0.236111	-0.21569	0.151476	0.781661	0.503756	0	0	-0.0329893	-0.344321	0.0753945	0.686462	1.38362	0	0
1.95	-0.573187	1.53837	-0.808647	0.987388	-0.444613	0.904956	0.412339	-0.0632191	-0.323959	0.380466	0.0287892	0	0	-0.250365	-0.132878	-0.194931	0.572931	0.224957	0	0	-0.147683	0.056855	-0.310294	-0.238232	-0.219217	0.160931	0.775685	0.490742	0	0	-0.0431753	-0.337053	0.0719742	0.680286	1.38169	0	0
1.96	-0.970732	1.53868	-0.414393	0.985477	-0.45774	0.905085	0.417752	-0.0518824	-0.322806	0.396739	0.0337654	0	0	-0.208689	-0.153353	-0.190259	0.64506	0.173799	0	0	-0.134157	0.0651207	-0.305419	-0.241244	-0.224009	0.173683	0.772231	0.469603	0	0	-0.0532597	-0.330297	0.0712503	0.674468	1.37678	0	0
1.97	-1.29573	1.53417	-0.0943608	0.983473	-0.470772	0.905244	0.417777	-0.0380528	-0.321464	0.402977	0.0380501	0	0	-0.167509	-0.172148	-0.182049	0.714376	0.117181	0	0	-0.121768	0.0734256	-0.298541	-0.24539	-0.229111	0.184186	0.772211	0.451371	0	0	-0.0630689	-0.324256	0.0732883	0.669987	1.37047	0	0
1.98	-1.5156	1.52718	0.11961	0.981389	-0.483764	0.905362	0.413735	-0.022614	-0.31916	0.402149	0.0425134	0	0	-0.127004	-0.189461	-0.172658	0.780564	0.0575653	0	0	-0.11005	0.0813167	-0.290483	-0.250346	-0.234543	0.193751	0.774282	0.437344	0	0	-0.0729789	-0.318879	0.0765422	0.66706	1.36539	0	0
1.99	-1.65949	1.51967	0.256718	0.979237	-0.496671	0.905474	0.407263	-0.00655204	-0.314327	0.397813	0.0478989	0	0	-0.087111	-0.204832	-0.16235	0.844301	-0.00247843	0	0	-0.099212	0.0881744	-0.281514	-0.255645	-0.240184	0.202458	0.7784	0.42431	0	0	-0.0829207	-0.314032	0.079858	0.66551	1.36173	0	0
2	-1.72446	1.51281	0.313792	0.977096	-0.509455	0.905813	0.39778	0.00961153	-0.306304	0.393278	0.0544001	0	0	-0.0496935	-0.218148	-0.150998	0.906457	-0.0591549	0	0	-0.0918012	0.0945274	-0.270846	-0.261241	-0.245386	0.206343	0.784882	0.416764	0	0	-0.091481	-0.309433	0.0837279	0.664169	1.36032	0	0
2.01	-1.7251	1.5081	0.306477	0.97509	-0.522081	0.906592	0.385541	0.0238445	-0.296528	0.39218	0.0637772	0	0	-0.0174523	-0.228872	-0.140531	0.963239	-0.106327	0	0	-0.0890053	0.0995965	-0.259489	-0.266203	-0.24959	0.207044	0.791118	0.411918	0	0	-0.0984047	-0.305307	0.0881646	0.662714	1.36026	0	0
2.02	-1.69006	1.50493	0.264069	0.973243	-0.534502	0.907752	0.372002	0.0361718	-0.284743	0.39508	0.0754162	0	0	0.0106241	-0.237531	-0.131749	1.01332	-0.136939	0	0	-0.0896771	0.103725	-0.248053	-0.270713	-0.253173	0.206128	0.797426	0.407738	0	0	-0.10366	-0.301675	0.0938416	0.660807	1.36184	0	0
2.03	-1.61903	1.50385	0.18593	0.971571	-0.546821	0.909383	0.35552	0.045925	-0.271835	0.399592	0.0874246	0	0	0.0332433	-0.242807	-0.123936	1.05622	-0.148184	0	0	-0.094207	0.106009	-0.23682	-0.274278	-0.255839	0.204086	0.802472	0.403067	0	0	-0.107988	-0.298242	0.0989727	0.658649	1.36503	0	0
2.04	-1.53201	1.5041	0.0926051	0.970047	-0.558996	0.911352	0.336313	0.0533028	-0.260048	0.402294	0.0980898	0	0	0.0539478	-0.245317	-0.115785	1.09604	-0.141848	0	0	-0.100452	0.106259	-0.226618	-0.27691	-0.257233	0.200301	0.805366	0.398023	0	0	-0.111828	-0.295278	0.103958	0.656068	1.37	0	0
2.05	-1.4474	1.50494	0.00263034	0.96861	-0.57095	0.913516	0.315211	0.0588814	-0.250627	0.400651	0.106179	0	0	0.0760805	-0.245711	-0.106115	1.13619	-0.119639	0	0	-0.106694	0.104699	-0.217703	-0.278312	-0.257218	0.19493	0.805382	0.394594	0	0	-0.115649	-0.292637	0.107526	0.653749	1.37745	0	0
